# xmcd
#
# Track frame offsets: 
#        150
#        19810
#        37800
#        59360
#        77990
#        99970
#        116345
#        140743
#
# Disc length: 2121 seconds
#
# Revision: 4
# Processed by: cddbd v1.5.2PL0 Copyright (c) Steve Scherf et al.
# Submitted via: ExactAudioCopy v0.99pb3
#
DISCID=60084708
DTITLE=Jackson Browne - Lawyers In Love
DYEAR=1983
DGENRE=Rock
TTITLE0=Lawyers In Love
TTITLE1=On The Day
TTITLE2=Cut It Away
TTITLE3=Downtown
TTITLE4=Tender Is The Night
TTITLE5=Knock On Any Door
TTITLE6=Say It Isn't True
TTITLE7=For A Rocker
EXTD=ID3G:  17 YEAR: 1983
EXTT0=
EXTT1=
EXTT2=
EXTT3=
EXTT4=
EXTT5=
EXTT6=
EXTT7=
PLAYORDER=
